#define _width 8
#define _height 8
static char _bits[] = {
 0x00,0x08,0x0c,0x08,0x08,0x08,0x08,0x1c };
