#define _width 8
#define _height 8
static char _bits[] = {
 0x00,0x10,0x18,0x14,0x12,0x3e,0x10,0x10 };
