#define _width 8
#define _height 8
static char _bits[] = {
 0x00,0x3e,0x02,0x1e,0x20,0x20,0x22,0x1c };
