#define _width 8
#define _height 8
static char _bits[] = {
 0x00,0x1c,0x22,0x22,0x1c,0x20,0x10,0x0e };
