#define _width 8
#define _height 8
static char _bits[] = {
 0x00,0x00,0x3c,0x02,0x02,0x02,0x3c,0x00 };
