#define _width 8
#define _height 8
static char _bits[] = {
 0x02,0x02,0x22,0x12,0x0e,0x12,0x22,0x00 };
