#define _width 8
#define _height 8
static char _bits[] = {
 0x06,0x04,0x04,0x04,0x04,0x04,0x0e,0x00 };
