#define _width 8
#define _height 8
static char _bits[] = {
 0x00,0x3e,0x06,0x06,0x06,0x06,0x06,0x3e };
