#define _width 8
#define _height 8
static char _bits[] = {
 0x00,0x06,0x26,0x10,0x08,0x04,0x32,0x30 };
