#define _width 8
#define _height 8
static char _bits[] = {
 0x00,0x38,0x44,0x04,0x0e,0x04,0x04,0x7a };
