#define _width 8
#define _height 8
static char _bits[] = {
 0x00,0x1c,0x22,0x10,0x08,0x08,0x00,0x08 };
