#define _width 8
#define _height 8
static char _bits[] = {
 0x00,0x00,0x3a,0x06,0x02,0x02,0x02,0x00 };
