#define _width 8
#define _height 8
static char _bits[] = {
 0x00,0x0e,0x18,0x18,0x30,0x18,0x18,0x0e };
