#define _width 8
#define _height 8
static char _bits[] = {
 0x04,0x04,0x1e,0x04,0x04,0x24,0x18,0x00 };
