#define _width 8
#define _height 8
static char _bits[] = {
 0x00,0x00,0x22,0x22,0x2a,0x2a,0x36,0x00 };
